<?xml version="1.0" encoding="UTF-8"?>
<svg width="44px" height="22px" viewBox="0 0 44 22" version="1.1" xmlns="http://www.w3.org/2000/svg">
    <path fill="gray" transform="translate(2, 1)" d="M11.2249851,3.20872002 C11.9819364,2.31220988 12.3570409,1.16241148 12.2717818,0 C11.1116609,0.110157377 10.0407439,0.660419308 9.28603203,1.53414732 C8.52698056,2.37942006 8.14169048,3.48744835 8.21544446,4.61297386 C9.38707477,4.63556403 10.501483,4.11558034 11.2249851,3.20872002 M12.2004093,4.82478215 C10.5350509,4.72999501 9.1313916,5.76095137 8.33439863,5.76095137 C7.53740566,5.76095137 6.32407308,4.87627145 5.01557715,4.89967568 C3.27198923,4.94801019 1.68613347,5.90501114 0.852181029,7.41211984 C-0.932131595,10.4546698 0.376364329,14.9868991 2.11309528,17.4642369 C2.95766993,18.6414697 3.96878041,20.0445533 5.31296259,19.9989151 C6.65714477,19.9532768 7.07348438,19.179767 8.60799323,19.179767 C10.1425021,19.179767 10.594528,19.9989151 11.9268147,19.9696598 C13.2591015,19.9404045 14.186944,18.7900866 15.0196233,17.5122156 C15.6202524,16.6393876 16.0890513,15.685492 16.4113871,14.6803037 C14.77744,13.9686988 13.7202739,12.3798553 13.7111273,10.6220101 C13.7311511,9.07047974 14.551133,7.63524721 15.8879887,6.81180133 C15.0407011,5.62002727 13.6774146,4.88456731 12.2004093,4.82244172 M22.8230171,2.46329527 L22.8230171,5.8042492 L25.5351723,5.8042492 L25.5351723,8.01009794 L22.8230171,8.01009794 L22.8230171,15.9148768 C22.8230171,17.0944501 23.3583109,17.6959388 24.5478527,17.6959388 C24.8740565,17.69014 25.1996894,17.6667004 25.5232769,17.6257261 L25.5232769,19.849128 C24.9924258,19.9337086 24.4551209,19.9728622 23.9173955,19.9661492 C21.110077,19.9661492 20.027594,18.8930652 20.027594,16.2027489 L20.027594,8.06275745 L17.8983143,8.06275745 L17.8983143,5.85105766 L19.9681169,5.85105766 L19.9681169,2.4656357 L22.8230171,2.46329527 Z M35.0158201,19.8444472 L32.0419657,19.8444472 L27.0458903,5.85105766 L30.0078493,5.85105766 L33.5169975,17.0944501 L33.58837,17.0944501 L37.0975181,5.85105766 L40,5.85105766 L35.0158201,19.8444472 Z"></path>
</svg>