<?xml version="1.0" encoding="UTF-8"?>
<svg width="66px" height="22px" viewBox="0 0 66 22" version="1.1" xmlns="http://www.w3.org/2000/svg">
    <path fill="gray" transform="translate(2, 4)" d="M52.9259723,14.0466039 C53.7894372,14.1212464 54.6524887,14.2014179 55.5134735,14.284354 L57.4144189,10.0984789 L59.2213296,14.6704674 C60.1484486,14.7740453 61.0751543,14.8827837 61.9989667,14.996314 L58.8311377,6.97897724 L62,0.000552907062 L59.3161909,0.000552907062 L59.2882905,0.0348331449 L57.5764477,3.8047378 L56.0735476,0.00110581412 L53.4236323,0.00110581412 L56.1593155,6.92442375 L52.926179,14.0466039 L52.9259723,14.0466039 Z M50.921899,13.8825748 L50.921899,0.000552907062 L48.273017,0.000552907062 L48.273017,13.6877672 C49.1565288,13.748587 50.0404539,13.81383 50.921899,13.8823905 M42.0807877,11.1729616 L42.0807877,0 L39.4203323,0 L39.4203323,13.246916 C41.5366272,13.3162137 43.6446553,13.4127881 45.7456566,13.5344277 L45.7456566,11.3570797 C44.526307,11.2868605 43.3048907,11.2258564 42.0807877,11.1727773 M31.023767,13.1062933 C31.7388432,13.1062933 32.4530927,13.1110852 33.1661022,13.1162456 L33.1661022,8.01623089 L36.3481913,8.01623089 L36.3481913,5.84441195 L33.1663089,5.84441195 L33.1663089,2.17495208 L36.8311777,2.17495208 L36.8311777,0.000552907062 L30.5070934,0.000552907062 L30.5070934,13.1081363 C30.6788357,13.1081363 30.8514047,13.1057404 31.023767,13.1062933 M22.799564,13.238991 C23.6820424,13.210977 24.5653475,13.1873863 25.4498927,13.1682189 L25.4498927,2.17532069 L27.9257923,2.17532069 L27.9257923,0.00110581412 L20.3236643,0.00110581412 L20.3236643,2.17532069 L22.7999773,2.17532069 L22.7999773,13.238991 L22.799564,13.238991 Z M17.7694369,2.17476778 L17.7694369,0.000737209417 L11.4447326,0.000737209417 L11.4447326,13.8604585 C13.5490214,13.6984689 15.6557383,13.5626248 17.7642702,13.452966 L17.7642702,11.2769081 C16.5416139,11.3403082 15.3214376,11.4132919 14.1041547,11.4945692 L14.1041547,8.01715241 L17.2862438,8.01715241 L17.2862438,5.84404335 L14.1041547,5.84404335 L14.1041547,2.17476778 L17.7694369,2.17476778 Z M2.54100055,14.7027203 L2.54100055,6.43215216 L5.6774157,14.3687644 C6.64194189,14.27219 7.60791477,14.1813289 8.57657435,14.095444 L8.57657435,0.000737209417 L6.0349538,0.000737209417 L6.0349538,8.56766354 L2.65053534,0.000737209417 L0,0.000737209417 L0,15 L0.0159135455,15 C0.855611408,14.8964221 1.69820264,14.7980046 2.54100055,14.7027203"></path>
</svg>