<?xml version="1.0" encoding="UTF-8"?>
<svg width="22px" height="22px" viewBox="0 0 22 22" version="1.1" xmlns="http://www.w3.org/2000/svg">
    <path fill="gray" transform="translate(1, 6)" d="M5.23579833,0 L5.23579833,0.350763059 C4.63177145,0.407656005 4.34380163,0.508776754 4.16388615,0.654125634 C3.98396035,0.799498948 3.89399998,0.985940339 3.89400425,1.21345046 C3.89399998,1.52946441 4.0417918,2.02242826 4.33738067,2.69234318 L8.31120928,10.2290076 L10.066,6.868 L7.91213511,2.06665771 C7.66152838,1.49786419 7.32083207,1.15026152 7.21802257,1.02384885 C7.05737719,0.827939108 6.85978493,0.674677957 6.62524741,0.564064911 C6.39070564,0.453476298 6.17823816,0.382375736 5.77984273,0.350763059 L5.77984273,0 L10.9116408,0 L10.9116408,0.350763059 C10.3076139,0.407656005 10.0196441,0.508776754 9.83972862,0.654125634 C9.65980281,0.799498948 9.56984245,0.985940339 9.56984655,1.21345046 C9.56984245,1.52946441 9.71763426,2.02242826 10.0132231,2.69234318 L11.074,4.936 L12.1965329,2.78714398 C12.4985324,2.05402831 12.7490891,1.54526451 12.7490995,1.26085078 C12.7490891,1.07758109 12.6559151,0.902199724 12.4695808,0.734706359 C12.2832216,0.5672371 12.0723607,0.448736217 11.6289946,0.379203219 C11.5968553,0.372895737 11.5422385,0.363415575 11.4651378,0.350763059 L11.4651378,0 L15.3900822,0 L15.3900822,0.350763059 C14.9274147,0.43293611 14.5772119,0.578297289 14.3394734,0.78684676 C13.998895,1.09654109 13.5973349,1.57054478 13.3338915,2.20885899 L11.527,5.894 L13.577081,10.2290076 L16.8064512,2.78714398 C17.1084504,2.05402831 17.3590081,1.54526451 17.3590179,1.26085078 C17.3590081,1.07758109 17.2658332,0.902199724 17.0794999,0.734706359 C16.8931404,0.5672371 16.5782796,0.448736217 16.1349127,0.379203219 C16.1027743,0.372895737 16.0481563,0.363415575 15.9710556,0.350763059 L15.9710556,0 L20,0 L20,0.350763059 C19.5373333,0.43293611 19.1871314,0.578297289 18.9493927,0.78684676 C18.6088136,1.09654109 18.2072539,1.57054478 17.94381,2.20885899 L13.2397286,13.1488732 L12.883101,13.1488732 L10.536,7.916 L7.97385702,13.1488732 L7.61722925,13.1488732 L2.23629264,2.06665771 C1.98568608,1.49786419 1.64498961,1.15026152 1.54218011,1.02384885 C1.38153489,0.827939108 1.18394245,0.674677957 0.949404931,0.564064911 C0.714863269,0.453476298 0.398395308,0.382375736 0,0.350763059 L0,0 L5.23579833,0 Z"></path>
</svg>